<?xml version="1.0" encoding="UTF-8" standalone="no"?><svg xmlns="http://www.w3.org/2000/svg" id="mindMapCanvas" width="640px" height="184.41379310344817px" viewBox="1981 1132.7931034482758 640 184.41379310344817" preserveAspectRatio="xMidYMid meet" style="transform: none; left: 0px; top: 0px;"><style>
                        .node path { stroke-width: 2px; }
                        .node text { pointer-events: none; }
                        .connection { fill: none; stroke-width: 2px; }
                        .arrow { stroke-width: 1px; }
                    </style><path d="M 2439.00 1221.00 L 2451.00 1225.00 L 2439.00 1229.00 Z" fill="#000000" stroke="#000000" stroke-width="1" pointer-events="none" class="arrow"/><path d="M 2151.00 1225.00 C 2237.40 1225.00 2352.60 1225.00 2439.00 1225.00" class="connection" stroke="#000000" stroke-width="2" fill="none" pointer-events="none"/><g class="node" id="node-3"><path d="M2080.8 1195.2 L2121.2 1195.2 A29.799999999999997 29.799999999999997 0 0 1 2151 1225 L2151 1225 A29.799999999999997 29.799999999999997 0 0 1 2121.2 1254.8 L2080.8 1254.8 A29.799999999999997 29.799999999999997 0 0 1 2051 1225 L2051 1225 A29.799999999999997 29.799999999999997 0 0 1 2080.8 1195.2 Z" fill="#ffffff" stroke="#000000" stroke-width="2"/><text x="2101" y="1225" text-anchor="middle" dominant-baseline="middle" fill="#000000" font-size="14px" font-family="Arial" line-height="1.4"><tspan x="2101" y="1225" fill="#000000" font-size="14px" font-family="Arial"/></text></g><g class="node" id="node-4"><path d="M2480.8 1195.2 L2521.2 1195.2 A29.799999999999997 29.799999999999997 0 0 1 2551 1225 L2551 1225 A29.799999999999997 29.799999999999997 0 0 1 2521.2 1254.8 L2480.8 1254.8 A29.799999999999997 29.799999999999997 0 0 1 2451 1225 L2451 1225 A29.799999999999997 29.799999999999997 0 0 1 2480.8 1195.2 Z" fill="#ffffff" stroke="#000000" stroke-width="2"/><text x="2501" y="1225" text-anchor="middle" dominant-baseline="middle" fill="#000000" font-size="14px" font-family="Arial" line-height="1.4"><tspan x="2501" y="1225" fill="#000000" font-size="14px" font-family="Arial"/></text></g></svg>