<?xml version="1.0" standalone="no"?><!DOCTYPE svg PUBLIC "-//W3C//DTD SVG 1.1//EN" "http://www.w3.org/Graphics/SVG/1.1/DTD/svg11.dtd"><svg t="1772766135915" class="icon" viewBox="0 0 1024 1024" version="1.1" xmlns="http://www.w3.org/2000/svg" p-id="7621" xmlns:xlink="http://www.w3.org/1999/xlink" width="200" height="200"><path d="M956.672 226.752c-12.864 13.248-29.12 30.208-48.832 50.88s-41.728 43.52-66.24 68.288c-24.512 24.896-51.008 51.584-79.488 80.128-28.48 28.48-57.6 57.664-87.296 87.552l91.52 94.4c28.928 29.824 56.448 57.856 82.56 84.416 26.048 26.56 49.728 50.88 71.04 73.344 21.248 22.336 39.104 40.896 53.568 55.808 20.864 21.504 31.488 44.992 31.936 70.272 0.448 25.152-10.176 48.576-31.936 70.08-1.536 0.96-4.352 3.136-8.384 6.848s-8.256 7.68-12.672 11.84-8.832 7.872-13.248 11.136c-4.416 3.328-6.976 5.376-7.808 6.208-20.864 16.64-42.56 21.76-65.088 15.552s-43.392-18.816-62.656-37.888c-13.696-14.08-30.72-31.424-51.2-52.16-20.48-20.608-43.392-44.032-68.608-70.144-25.344-25.984-52.608-54.016-81.92-83.776-29.312-29.952-59.2-60.416-89.664-92.032-36.928 37.248-72.512 73.088-106.624 107.456-34.112 34.304-64.896 65.28-92.16 92.544-27.264 27.2-50.176 50.368-68.672 69.44l-37.312 38.592c-19.264 20.608-38.592 32.064-57.792 34.112-19.264 2.048-40.96-5.12-65.088-21.76-4.8-3.392-13.248-10.56-25.344-21.696-12.032-11.2-21.312-20.864-27.712-29.248-14.464-21.504-21.504-42.752-21.12-63.936 0.384-20.992 11.008-42.368 31.936-63.872 4.032-4.096 14.848-15.104 32.512-32.896 17.664-17.792 40.32-40.896 68.096-68.928 27.712-28.096 59.008-60.032 93.952-95.616 34.944-35.584 71.68-73.216 110.208-113.088-35.328-36.352-69.248-71.168-101.76-104.32C212.864 371.264 183.36 341.44 156.864 314.944L91.84 245.44C73.344 227.2 60.48 214.72 53.312 208.128 44.48 198.976 36.416 189.12 29.184 178.304 21.952 167.552 16.512 156.352 12.928 144.832 9.344 133.184 8.32 121.344 9.92 109.376 11.52 97.408 16.768 85.568 25.536 73.984 26.368 72.32 29.184 68.992 33.984 64l34.944-35.968c23.296-21.504 49.984-28.544 80.064-21.12 30.08 7.488 60.416 26.944 90.944 58.368C269.632 96.768 308.16 136.96 355.584 185.728l154.176 158.976 284.224-293.056c21.632-22.4 46.144-36.416 73.408-42.304 27.328-5.76 51.008-2.432 71.04 9.984 4.032 2.496 9.024 6.464 15.04 11.84 6.08 5.312 12.032 11.328 18.048 17.92 6.016 6.656 11.904 13.504 17.472 20.48 5.632 7.04 9.984 12.992 13.248 17.984 14.464 26.56 16.256 50.112 5.44 70.784C996.928 179.136 979.904 201.856 956.672 226.752L956.672 226.752zM956.608 226.752" fill="#ffffff" p-id="7622"></path></svg>