<?xml version="1.0" standalone="no"?><!DOCTYPE svg PUBLIC "-//W3C//DTD SVG 1.1//EN" "http://www.w3.org/Graphics/SVG/1.1/DTD/svg11.dtd"><svg t="1770019381744" class="icon" viewBox="0 0 1024 1024" version="1.1" xmlns="http://www.w3.org/2000/svg" p-id="7265" xmlns:xlink="http://www.w3.org/1999/xlink" width="200" height="200"><path d="M659.4 311.8h225.2c10 0 18-8 18-18V181c0-10-8-18-18-18H659.4c-10 0-18 8-18 18v46.6h-50.2c-48.6 0-88 39.4-88 88V432c0 39.8-32.2 72-72 72h-49c-4-37.2-35.6-66.4-73.8-66.4H195.8c-41 0-74.4 33.4-74.4 74.4s33.4 74.4 74.4 74.4h112.4c38.2 0 69.8-29 73.8-66.4h49c39.8 0 72 32.2 72 72v116.4c0 48.6 39.4 88 88 88h50.2v50.4c0 10 8 18 18 18h225.2c10 0 18-8 18-18v-112.6c0-10-8-18-18-18H659.4c-10 0-18 8-18 18v46.2h-50.2c-39.8 0-72-32.2-72-72V592c0-29.8-14.8-56-37.4-72h159.6v48.4c0 10 8 18 18 18h225.2c10 0 18-8 18-18v-112.6c0-10-8-18-18-18H659.4c-10 0-18 8-18 18V504h-159.6c22.6-16 37.4-42.2 37.4-72v-116.4c0-39.8 32.2-72 72-72h50.2v50.2c0 9.8 8 18 18 18z" fill="#ffffff" p-id="7266"></path></svg>