<?xml version="1.0" standalone="no"?><!DOCTYPE svg PUBLIC "-//W3C//DTD SVG 1.1//EN" "http://www.w3.org/Graphics/SVG/1.1/DTD/svg11.dtd"><svg t="1770082625540" class="icon" viewBox="0 0 1024 1024" version="1.1" xmlns="http://www.w3.org/2000/svg" p-id="3288" xmlns:xlink="http://www.w3.org/1999/xlink" width="200" height="200"><path d="M525.746424 17.283879l-5.430303 0.155151a89.367273 89.367273 0 0 0-83.905939 89.181091v8.16097l-2.575515-1.768727a94.704485 94.704485 0 0 0-51.013819-14.801455l-5.585454 0.155152A95.138909 95.138909 0 0 0 287.650909 193.349818L287.650909 517.740606l-50.982788-34.660848a84.681697 84.681697 0 0 0-110.343757 13.125818l-2.575516 2.823757a90.949818 90.949818 0 0 0-4.096 117.356606l62.743273 80.151273c88.250182 113.446788 137.24703 180.099879 144.135758 195.646061 6.733576 15.142788 10.860606 37.639758 11.946666 67.180606 0.930909 28.299636 24.203636 50.827636 52.596364 50.889697h394.581333a52.720485 52.720485 0 0 0 52.596364-47.693576c3.599515-37.639758 9.774545-66.187636 18.121697-85.364364l2.327273-4.995878c27.275636-54.582303 66.280727-203.589818 69.476848-288.333576l0.465455-14.584243c0.837818-28.423758 1.241212-65.784242 1.334303-112.205575l-0.217212-81.516606c-0.155152-27.523879-0.403394-57.250909-0.744728-89.150061a90.484364 90.484364 0 0 0-90.453333-89.491394l-5.492364 0.155152a92.253091 92.253091 0 0 0-48.779636 17.376969l-3.940848 3.00994v-20.48a97.559273 97.559273 0 0 0-95.976728-97.559273l-6.950788 0.155151c-16.694303 0.961939-32.240485 6.206061-45.521454 14.646303l-4.033939 2.730667 0.09309 3.351273a103.517091 103.517091 0 0 0-102.213818-103.020606z m0 41.518545l4.406303 0.217212a61.967515 61.967515 0 0 1 56.25794 61.44l1.303272 331.000243c0.124121 27.61697 41.580606 27.554909 41.580606-0.093091V194.56c0-28.020364 21.504-51.044848 48.934788-53.372121l5.647515-0.186182c30.409697 0.496485 54.923636 25.413818 54.923637 56.009697v254.386424c0 27.120485 40.370424 27.989333 41.549576 0.930909l7.136969-164.89503a51.137939 51.137939 0 0 1 51.075879-48.934788c26.810182 0 48.624485 21.597091 48.903758 48.407273l0.744727 88.901818c0.124121 16.446061 0.186182 32.147394 0.217212 47.041939l-0.124121 69.849213a3006.743273 3006.743273 0 0 1-1.644606 89.615515c-2.978909 78.754909-40.463515 221.990788-65.132606 271.328969-12.225939 24.451879-20.262788 59.298909-24.638061 104.975516a11.170909 11.170909 0 0 1-11.170909 10.115878H391.105939a11.170909 11.170909 0 0 1-11.108848-10.798545c-1.303273-34.443636-6.299152-61.874424-15.515152-82.571637l-1.706666-3.506424c-15.018667-28.578909-83.688727-120.087273-210.478546-281.134545-14.894545-18.928485-13.963636-45.893818 2.234182-63.736243l2.575515-2.823757a43.132121 43.132121 0 0 1 56.195879-6.702546l83.471515 56.723394a20.790303 20.790303 0 0 0 32.426667-17.159757V193.349818a53.589333 53.589333 0 0 1 105.875394-11.946666c0.868848 3.847758 1.334303 266.767515 1.334303 270.894545 0 27.67903 41.549576 27.67903 41.549576 0V178.920727 106.620121c0-26.375758 21.410909-47.786667 47.786666-47.786666z" fill="#ffffff" p-id="3289"></path></svg>